<svg xmlns="http://www.w3.org/2000/svg" viewBox="0 0 256 256"><path d="M240 170a2.006 2.006 0 00-2-2h-11.1a29.43 29.43 0 005.24-28.32 234.457 234.457 0 00-46.16-80.1 29.376 29.376 0 00-22.08-10h-.04a29.165 29.165 0 00-9.03 1.43c-5.55-7.71-11.6-15.31-17.99-22.6A36.418 36.418 0 00109.44 16h-.03a36.509 36.509 0 00-27.44 12.47 296.771 296.771 0 00-58 100.54A36.517 36.517 0 0034.1 168H18a2.006 2.006 0 00-2 2 18.027 18.027 0 0018 18h2.17A25.969 25.969 0 0024 210v4a26.025 26.025 0 0026 26h156a26.025 26.025 0 0026-26v-4a25.969 25.969 0 00-12.17-22H222a18.027 18.027 0 0018-18zM163.87 53.58h.03a25.4 25.4 0 0119.08 8.64 230.389 230.389 0 0145.36 78.74 25.386 25.386 0 01-6.98 27.04h-19.18c3.89-20.82-2.4-35.06-2.68-35.68a1.985 1.985 0 00-1.82-1.18h-67.69a2 2 0 00-1.82 1.17c-.28.63-6.58 14.87-2.68 35.69h-19.16a25.447 25.447 0 01-6.97-27.06q3.345-9.87 7.54-19.35a232.916 232.916 0 0137.87-59.32 25.441 25.441 0 0119.1-8.69zM27.75 130.29a292.543 292.543 0 0157.24-99.18A32.481 32.481 0 01109.42 20h.02a32.461 32.461 0 0124.4 11.05c6.08 6.94 11.86 14.17 17.17 21.51a29.16 29.16 0 00-9.26 7.07 236.816 236.816 0 00-37.91 59H66.77a1.985 1.985 0 00-1.82 1.18c-.38.84-8.94 20.25-2.6 48.19H40.64a32.522 32.522 0 01-12.89-37.71zM76 220v-22h104v22H76zm130-36H34a14.026 14.026 0 01-13.86-12h215.72A14.026 14.026 0 01222 184z"/><path d="M178.21 85.11a2 2 0 00.9 2.68l4 2a2 2 0 101.78-3.58l-4-2a2 2 0 00-2.68.9zm-.62-4.7a1.994 1.994 0 102.82-2.82l-3-3a1.994 1.994 0 00-2.82 2.82zM174 200h-10a2.006 2.006 0 00-2 2v14a2.006 2.006 0 002 2h10a2.006 2.006 0 002-2v-14a2.006 2.006 0 00-2-2zm-2 14h-6v-10h6zm-.89-125.21a2 2 0 002.68-.9l2-4a2 2 0 00-3.58-1.78l-2 4a2 2 0 00.9 2.68z"/><circle cx="158" cy="216" r="2"/><path d="M152 200h-10a2.006 2.006 0 00-2 2v14a2.006 2.006 0 002 2h10a2.006 2.006 0 002-2v-14a2.006 2.006 0 00-2-2zm-2 14h-6v-10h6zm-14-14h-10a2.006 2.006 0 00-2 2v14a2.006 2.006 0 002 2h10a2.006 2.006 0 002-2v-14a2.006 2.006 0 00-2-2zm-2 14h-6v-10h6zM119.21 44.11a2 2 0 00.9 2.68l4 2a2 2 0 001.78-3.58l-4-2a2 2 0 00-2.68.9zm-.62-4.7a1.994 1.994 0 002.82-2.82l-3-3a1.994 1.994 0 10-2.82 2.82zm-6.48 8.38a2 2 0 002.68-.9l2-4a2 2 0 10-3.58-1.78l-2 4a2 2 0 00.9 2.68z"/></svg>